<svg version="1.0" id="Layer_1" xmlns="http://www.w3.org/2000/svg" xmlns:xlink="http://www.w3.org/1999/xlink" x="0px" y="0px" width="25.625px" height="25.625px" viewBox="0 0 25.625 25.625" style="enable-background:new 0 0 25.625 25.625;" xml:space="preserve">
<g>
	<path d="M12.812,0C5.736,0,0,5.736,0,12.812s5.736,12.813,12.812,12.813s12.813-5.737,12.813-12.813S19.888,0,12.812,0z
		 M21.521,19.194l-0.137-1.114l-4.065,0.933l-2.145,3.579l1.029,0.48c-1.068,0.354-2.206,0.553-3.391,0.553
		s-2.323-0.199-3.391-0.553l1.03-0.48l-2.145-3.578L4.24,18.081l-0.137,1.112C2.787,17.402,2,15.2,2,12.812
		c0-0.019,0.003-0.038,0.003-0.058l0.777,0.834l2.74-3.145L5.152,6.287L4.051,6.501C5.392,4.645,7.3,3.226,9.526,2.514L8.973,3.511
		l3.839,1.633l3.839-1.633l-0.553-0.997c2.226,0.712,4.134,2.131,5.475,3.987l-1.102-0.214l-0.368,4.154l2.741,3.146l0.778-0.834
		c0,0.02,0.003,0.04,0.003,0.06C23.625,15.201,22.837,17.403,21.521,19.194z"></path>
	<polygon points="8.305,11.8 10.027,17.098 15.597,17.098 17.319,11.8 12.812,8.526 	"></polygon>
</g>
</svg>