<svg version="1.0" id="Layer_1" xmlns="http://www.w3.org/2000/svg" xmlns:xlink="http://www.w3.org/1999/xlink" x="0px" y="0px" viewBox="0 0 24 24" style="enable-background:new 0 0 24 24;" xml:space="preserve">
<path d="M8,20c0,1.105-0.895,2-2,2c-1.105,0-2-0.895-2-2c0-1.105,0.895-2,2-2C7.105,18,8,18.895,8,20z M14,6c1.105,0,2-0.895,2-2
	c0-1.105-0.895-2-2-2c-1.105,0-2,0.895-2,2S12.895,6,14,6z M16.794,7.581l-0.309-0.134c-0.598-0.262-1.217-0.533-1.856-0.621
	l-1.732-0.407c-1.215-0.242-2.368-0.029-3.411,0.623c-1.18,0.708-2.112,1.761-2.695,3.044l-0.5,1.1l1.82,0.827l0.5-1.1
	c0.411-0.904,1.064-1.645,1.901-2.152L10.5,8.8l-1.8,4.4l0.009,0.003l-1.121,2.486l1.823,0.822l1.253-2.779l0.91,0.247l-2.511,6.669
	l1.872,0.705l3.051-8.104l1.565-4.024c0.045,0.02,0.085,0.034,0.132,0.055l4.839,2.6l0.955-1.757L16.794,7.581z"></path>
</svg>