<svg version="1.0" id="Layer_1" xmlns="http://www.w3.org/2000/svg" xmlns:xlink="http://www.w3.org/1999/xlink" x="0px" y="0px" viewBox="0 0 26 26" style="enable-background:new 0 0 26 26;" xml:space="preserve">
<path d="M22.4,15c0-0.1-0.1-0.1-0.1-0.2L17,8.3V2c0-1.1-0.9-2-2-2H5C3.9,0,3,0.9,3,2v14c0,1.1,0.9,2,2,2h0.56l0.24,1.4
	c0.7,3.8,4,6.6,7.9,6.6h3.2c1.6,0,3-0.9,3.7-2.4l2.1-4.8C23.2,17.6,23.1,16.2,22.4,15z M20.9,18l-2.1,4.8c-0.3,0.7-1,1.2-1.8,1.2
	h-3.2c-2.9,0-5.4-2.1-5.9-4.9l-0.6-3.5l-0.5-3.1c-0.191-0.859,0.179-1.798,0.995-2.317C7.863,10.154,7.928,10.122,8,10.1
	c1.1-0.4,2.2,0.1,2.6,1.2L13,18h2h0c0.1,0,0.3,0,0.4,0c0.56-0.08,0.983-0.42,1.236-0.858C16.863,16.818,17,16.425,17,16.001
	c0,0,0-0.001,0-0.001v-4.438l3.7,4.538C21.1,16.7,21.1,17.4,20.9,18z"></path>
</svg>