<svg version="1.0" id="Layer_1" xmlns="http://www.w3.org/2000/svg" xmlns:xlink="http://www.w3.org/1999/xlink" x="0px" y="0px" viewBox="0 0 10 19.9" style="enable-background:new 0 0 10 19.9;" xml:space="preserve">
<path d="M0.2,4.8H0c0-0.1,0-0.1,0-0.2C0,2.1,2.2,0,4.9,0c2.2,0,4,1.3,4.7,3.1C8.8,3.2,8.4,4,8,5.1C7.6,4.3,6.8,3.8,5.8,3.8
	S4,4.3,3.6,5C3.2,4,2.8,2.9,1.5,3.1c0,0-0.6,0.5-0.5,2.1C0.8,5,0.5,4.8,0.2,4.8z M4.1,6.2c0,0.8,0.7,1.5,1.6,1.5
	c0.9,0,1.6-0.6,1.6-1.5c0-0.8-0.7-1.5-1.6-1.5C4.8,4.7,4.1,5.4,4.1,6.2z M2.7,12.7c-0.2-0.9-0.8-3.6-1.2-5.3c-0.4-0.9-1.2-2-1.4-1.8
	c0.4,1.6,1.6,3.9,2.2,10.7C2.3,16.4,2.7,14.1,2.7,12.7z M6.7,14.7c0-0.2-1.4,2-1.7,3.2c-0.1-5.2,4.7-5.8,5-14
	C8.9,3.2,8.2,8.4,6.3,8.4c-0.3,0-0.3,0-0.7,0C2.9,8.4,2.9,3.6,2,3.8c-0.9,3,2.9,8.6,0.5,13.8c-0.1,0.3-0.8,1.3-0.8,1.5
	c0,0.4,1.5,0.8,3.3,0.8s3.3-0.3,3.3-0.8c0-0.3-0.7-1.2-0.8-1.5C7.1,17.2,6.6,16,6.7,14.7z"></path>
</svg>